<svg width="100" height="100" viewBox="0 0 100 100" fill="none" xmlns="http://www.w3.org/2000/svg">
<path fill-rule="evenodd" clip-rule="evenodd" d="M75.0002 50C75.0002 50.8288 74.671 51.6237 74.0849 52.2097C73.4989 52.7958 72.704 53.125 71.8752 53.125H35.669L49.0877 66.5375C49.3783 66.8281 49.6087 67.173 49.766 67.5526C49.9232 67.9322 50.0042 68.3391 50.0042 68.75C50.0042 69.1609 49.9232 69.5678 49.766 69.9474C49.6087 70.327 49.3783 70.672 49.0877 70.9625C48.7972 71.2531 48.4522 71.4835 48.0726 71.6408C47.693 71.798 47.2861 71.8789 46.8752 71.8789C46.4643 71.8789 46.0574 71.798 45.6778 71.6408C45.2982 71.4835 44.9533 71.2531 44.6627 70.9625L25.9127 52.2125C25.6217 51.9222 25.3908 51.5774 25.2333 51.1977C25.0757 50.8181 24.9946 50.411 24.9946 50C24.9946 49.589 25.0757 49.1819 25.2333 48.8023C25.3908 48.4226 25.6217 48.0778 25.9127 47.7875L44.6627 29.0375C45.2495 28.4507 46.0454 28.1211 46.8752 28.1211C47.7051 28.1211 48.5009 28.4507 49.0877 29.0375C49.6745 29.6243 50.0042 30.4202 50.0042 31.25C50.0042 32.0798 49.6745 32.8757 49.0877 33.4625L35.669 46.875H71.8752C72.704 46.875 73.4989 47.2042 74.0849 47.7903C74.671 48.3763 75.0002 49.1712 75.0002 50Z" fill="black"/>
</svg>
