<svg width="99" height="100" viewBox="0 0 99 100" fill="none" xmlns="http://www.w3.org/2000/svg">
<path d="M95.8875 12.125C96.4714 12.7108 96.7993 13.5041 96.7993 14.3313C96.7993 15.1584 96.4714 15.9517 95.8875 16.5375L89.3687 23.0625L76.8687 10.5625L83.3875 4.0375C83.9735 3.45165 84.7682 3.12254 85.5969 3.12254C86.4255 3.12254 87.2202 3.45165 87.8062 4.0375L95.8875 12.1188V12.125ZM84.95 27.475L72.45 14.975L29.8688 57.5625C29.5248 57.9064 29.2658 58.3259 29.1125 58.7875L24.0812 73.875C23.99 74.1501 23.977 74.4451 24.0438 74.7271C24.1106 75.0091 24.2545 75.2669 24.4594 75.4718C24.6643 75.6767 24.9222 75.8206 25.2042 75.8874C25.4862 75.9542 25.7812 75.9412 26.0562 75.85L41.1437 70.8188C41.6048 70.6673 42.0242 70.4105 42.3688 70.0688L84.95 27.475Z" fill="#AD343E"/>
<path fill-rule="evenodd" clip-rule="evenodd" d="M5.25 84.375C5.25 86.8614 6.23772 89.246 7.99587 91.0041C9.75403 92.7623 12.1386 93.75 14.625 93.75H83.375C85.8614 93.75 88.246 92.7623 90.0041 91.0041C91.7623 89.246 92.75 86.8614 92.75 84.375V46.875C92.75 46.0462 92.4208 45.2513 91.8347 44.6653C91.2487 44.0792 90.4538 43.75 89.625 43.75C88.7962 43.75 88.0013 44.0792 87.4153 44.6653C86.8292 45.2513 86.5 46.0462 86.5 46.875V84.375C86.5 85.2038 86.1708 85.9987 85.5847 86.5847C84.9987 87.1708 84.2038 87.5 83.375 87.5H14.625C13.7962 87.5 13.0013 87.1708 12.4153 86.5847C11.8292 85.9987 11.5 85.2038 11.5 84.375V15.625C11.5 14.7962 11.8292 14.0013 12.4153 13.4153C13.0013 12.8292 13.7962 12.5 14.625 12.5H55.25C56.0788 12.5 56.8737 12.1708 57.4597 11.5847C58.0458 10.9987 58.375 10.2038 58.375 9.375C58.375 8.5462 58.0458 7.75134 57.4597 7.16529C56.8737 6.57924 56.0788 6.25 55.25 6.25H14.625C12.1386 6.25 9.75403 7.23772 7.99587 8.99587C6.23772 10.754 5.25 13.1386 5.25 15.625V84.375Z" fill="#AD343E"/>
</svg>
