<svg width="42" height="40" viewBox="0 0 42 40" fill="none" xmlns="http://www.w3.org/2000/svg">
<path d="M20.9997 7.21363L19.1176 5.279C14.6997 0.737752 6.59897 2.30488 3.67472 8.01425C2.30185 10.6996 1.9921 14.5768 4.49897 19.5249C6.91397 24.2893 11.9382 29.996 20.9997 36.212C30.0612 29.996 35.0829 24.2893 37.5005 19.5249C40.0074 14.5741 39.7002 10.6996 38.3247 8.01425C35.4005 2.30488 27.2997 0.735128 22.8818 5.27638L20.9997 7.21363ZM20.9997 39.3751C-19.2494 12.7786 8.6071 -7.97987 20.5377 3.0005C20.6952 3.14575 20.8492 3.29538 20.9997 3.44938C21.1476 3.29441 21.3017 3.14553 21.4617 3.00313C33.3897 -7.98512 61.2489 12.776 20.9997 39.3751Z" fill="#AD343E"/>
</svg>
